<svg width="19" height="19" fill="none" xmlns="http://www.w3.org/2000/svg"><g clip-path="url(#clip0_2_60)"><path d="M15.576 3.423a8.589 8.589 0 00-12.152 0 8.589 8.589 0 000 12.153 8.589 8.589 0 0012.152 0 8.589 8.589 0 000-12.153zm-.359 10.928a8.614 8.614 0 00-1.283-.95 13.9 13.9 0 00.518-3.354h2.527a7.43 7.43 0 01-1.762 4.304zM2.022 10.047h2.526c.042 1.182.22 2.32.519 3.353a8.614 8.614 0 00-1.284.95 7.43 7.43 0 01-1.761-4.303zm1.76-5.399c.402.36.832.677 1.285.95a13.876 13.876 0 00-.519 3.354H2.022a7.43 7.43 0 011.76-4.304zm5.17 1.064A7.44 7.44 0 016.4 5.065c.464-1.196 1.32-2.63 2.553-2.985v3.632zm0 1.097v2.143H5.645c.038-1 .18-1.96.415-2.84a8.536 8.536 0 002.894.697zm0 3.238v2.143a8.55 8.55 0 00-2.893.696 12.903 12.903 0 01-.415-2.839h3.309zm0 3.24v3.632c-1.232-.355-2.088-1.79-2.552-2.985a7.44 7.44 0 012.553-.647zm1.096 0a7.44 7.44 0 012.552.647c-.464 1.196-1.32 2.63-2.552 2.985v-3.632zm0-1.097v-2.143h3.308a12.9 12.9 0 01-.415 2.84 8.536 8.536 0 00-2.893-.697zm0-3.238V6.809a8.535 8.535 0 002.893-.696 12.9 12.9 0 01.415 2.839h-3.308zm0-3.24V2.08c1.232.356 2.088 1.79 2.552 2.985a7.44 7.44 0 01-2.552.647zm2.46-3.085c.7.307 1.354.723 1.94 1.24a7.412 7.412 0 01-.88.668 8.243 8.243 0 00-1.06-1.908zM5.433 4.535a7.53 7.53 0 01-.881-.668 7.465 7.465 0 011.94-1.24 8.247 8.247 0 00-1.06 1.908zm0 9.929a8.245 8.245 0 001.06 1.908 7.462 7.462 0 01-1.941-1.24 7.53 7.53 0 01.88-.668zm8.135 0c.307.2.602.422.88.668a7.467 7.467 0 01-1.94 1.24 8.245 8.245 0 001.06-1.908zm.884-5.512a13.898 13.898 0 00-.518-3.353 8.614 8.614 0 001.283-.95 7.43 7.43 0 011.761 4.303h-2.526z" fill="#fff"/></g><defs><clipPath id="clip0_2_60"><path fill="#fff" transform="translate(.905 .905)" d="M0 0h17.191v17.191H0z"/></clipPath></defs></svg>